<?xml version="1.0" standalone="no"?>
 <!DOCTYPE svg PUBLIC "-//W3C//DTD SVG 1.1//EN" 
 "http://www.w3.org/Graphics/SVG/1.1/DTD/svg11.dtd"> 
<svg xmlns="http://www.w3.org/2000/svg" version="1.1" 
    width="10.9677cm" height="5.23748cm" viewBox="0 0 43180 20620 ">
<title>SVG Picture created as EMLD-F.Paste.svg date 2017/06/05 15:02:49 </title>
  <desc>Picture generated by PCBNEW </desc>
<g style="fill:#000000; fill-opacity:1;stroke:#000000; stroke-opacity:1;
stroke-linecap:round; stroke-linejoin:round; "
 transform="translate(0 0) scale(1 1)">
</g>
<g style="fill:#000000; fill-opacity:0.0; 
stroke:#000000; stroke-width:-0.000393701; stroke-opacity:1; 
stroke-linecap:round; stroke-linejoin:round;">
</g>
<g style="fill:#000000; fill-opacity:0.0; 
stroke:#000000; stroke-width:59.0551; stroke-opacity:1; 
stroke-linecap:round; stroke-linejoin:round;">
<path d="M3877 18779
L3877 1850
" />
<path d="M39311 18779
L3877 18779
" />
<path d="M39311 1850
L39311 18779
" />
<path d="M3877 1850
L39311 1850
" />
</g>
<g style="fill:#000000; fill-opacity:0.0; 
stroke:#000000; stroke-width:0; stroke-opacity:1; 
stroke-linecap:round; stroke-linejoin:round;">
</g>
<g style="fill:#000000; fill-opacity:1.0; 
stroke:#000000; stroke-width:0; stroke-opacity:1; 
stroke-linecap:round; stroke-linejoin:round;">
<polyline style="fill-rule:evenodd;"
points="35311,11708
35980,11708
35980,13007
35311,13007
35311,11708
" /> 
<polyline style="fill-rule:evenodd;"
points="35311,13874
35980,13874
35980,15173
35311,15173
35311,13874
" /> 
<polyline style="fill-rule:evenodd;"
points="36700,13507
37409,13507
37409,13822
36700,13822
36700,13507
" /> 
<polyline style="fill-rule:evenodd;"
points="36700,14059
37409,14059
37409,14374
36700,14374
36700,14059
" /> 
<polyline style="fill-rule:evenodd;"
points="37882,13783
38591,13783
38591,14098
37882,14098
37882,13783
" /> 
<polyline style="fill-rule:evenodd;"
points="35881,9748
35409,9748
35409,9157
35881,9157
35881,9748
" /> 
<polyline style="fill-rule:evenodd;"
points="35881,8724
35409,8724
35409,8133
35881,8133
35881,8724
" /> 
</g> 
</svg>
