G04 #@! TF.FileFunction,Soldermask,Bot*
%FSLAX46Y46*%
G04 Gerber Fmt 4.6, Leading zero omitted, Abs format (unit mm)*
G04 Created by KiCad (PCBNEW 4.0.6) date Mon Jun  5 15:03:05 2017*
%MOMM*%
%LPD*%
G01*
G04 APERTURE LIST*
%ADD10C,0.100000*%
%ADD11C,2.000000*%
%ADD12C,1.800000*%
%ADD13C,1.900000*%
%ADD14R,1.900000X1.900000*%
%ADD15R,2.900000X2.900000*%
%ADD16C,1.650000*%
%ADD17R,2.200000X2.200000*%
%ADD18C,2.200000*%
%ADD19C,3.400000*%
%ADD20R,2.400000X2.400000*%
%ADD21C,2.400000*%
%ADD22R,2.000000X2.000000*%
%ADD23R,3.900000X3.900000*%
%ADD24C,3.900000*%
G04 APERTURE END LIST*
D10*
D11*
X152400000Y-85090000D03*
X152400000Y-82550000D03*
X152400000Y-80010000D03*
X152400000Y-77470000D03*
X152400000Y-97790000D03*
X152400000Y-95250000D03*
X152400000Y-92710000D03*
X152400000Y-90170000D03*
D12*
X123190000Y-68580000D03*
X128190000Y-68580000D03*
X130810000Y-68580000D03*
X135810000Y-68580000D03*
D11*
X123190000Y-82550000D03*
X123190000Y-85090000D03*
X123190000Y-77470000D03*
X123190000Y-80010000D03*
X123190000Y-95250000D03*
X123190000Y-97790000D03*
X123190000Y-90170000D03*
X123190000Y-92710000D03*
D12*
X146050000Y-68580000D03*
X151050000Y-68580000D03*
X138430000Y-68580000D03*
X143430000Y-68580000D03*
D13*
X176530000Y-99060000D03*
D14*
X176530000Y-101600000D03*
D13*
X176530000Y-91440000D03*
D14*
X176530000Y-93980000D03*
D13*
X186055000Y-74930000D03*
D14*
X186055000Y-72390000D03*
D15*
X157770000Y-92830000D03*
X162270000Y-92830000D03*
D16*
X157520000Y-96830000D03*
X162520000Y-96830000D03*
D15*
X163320000Y-100330000D03*
X156720000Y-100330000D03*
D17*
X190500000Y-72390000D03*
D18*
X190500000Y-74930000D03*
D19*
X111543116Y-78580646D03*
X114456884Y-74419354D03*
X114456884Y-92580646D03*
X111543116Y-88419354D03*
D11*
X127000000Y-82550000D03*
X137160000Y-82550000D03*
X137160000Y-77470000D03*
X127000000Y-77470000D03*
X127000000Y-85090000D03*
X137160000Y-85090000D03*
X137160000Y-80010000D03*
X127000000Y-80010000D03*
X127000000Y-95250000D03*
X137160000Y-95250000D03*
X127000000Y-92710000D03*
X137160000Y-92710000D03*
X127000000Y-97790000D03*
X137160000Y-97790000D03*
X127000000Y-90170000D03*
X137160000Y-90170000D03*
X180975000Y-74930000D03*
X180975000Y-64770000D03*
X182880000Y-101600000D03*
X182880000Y-91440000D03*
X182880000Y-88265000D03*
X182880000Y-78105000D03*
D20*
X191770000Y-83820000D03*
D21*
X191770000Y-86820000D03*
X191770000Y-80820000D03*
D22*
X148590000Y-85090000D03*
D11*
X148590000Y-82550000D03*
X148590000Y-80010000D03*
X148590000Y-77470000D03*
X140970000Y-77470000D03*
X140970000Y-80010000D03*
X140970000Y-82550000D03*
X140970000Y-85090000D03*
D22*
X148590000Y-97790000D03*
D11*
X148590000Y-95250000D03*
X148590000Y-92710000D03*
X148590000Y-90170000D03*
X140970000Y-90170000D03*
X140970000Y-92710000D03*
X140970000Y-95250000D03*
X140970000Y-97790000D03*
D23*
X168480000Y-75280000D03*
D12*
X157480000Y-82280000D03*
X157480000Y-80280000D03*
X157480000Y-84280000D03*
X157480000Y-78280000D03*
X157480000Y-76280000D03*
X157480000Y-86280000D03*
D23*
X168480000Y-87280000D03*
D17*
X167005000Y-100330000D03*
D18*
X167005000Y-97790000D03*
D24*
X188500000Y-67000000D03*
X113500000Y-67000000D03*
X113500000Y-100000000D03*
X188500000Y-100000000D03*
M02*
