M48
;DRILL file {KiCad 4.0.6} date Mon Jun  5 15:03:06 2017
;FORMAT={-:-/ absolute / metric / decimal}
FMAT,2
METRIC,TZ
T1C0.400
T2C0.800
T3C0.900
T4C1.000
T5C1.200
T6C1.500
T7C2.500
%
G90
G05
M71
T1
X133.35Y-91.44
X137.16Y-86.995
X139.065Y-78.74
X139.065Y-85.09
X144.78Y-85.09
X148.59Y-102.235
X150.495Y-85.725
X150.495Y-88.265
X156.845Y-74.295
X163.195Y-90.17
T2
X123.19Y-68.58
X123.19Y-77.47
X123.19Y-80.01
X123.19Y-82.55
X123.19Y-85.09
X123.19Y-90.17
X123.19Y-92.71
X123.19Y-95.25
X123.19Y-97.79
X127.Y-77.47
X127.Y-80.01
X127.Y-82.55
X127.Y-85.09
X127.Y-90.17
X127.Y-92.71
X127.Y-95.25
X127.Y-97.79
X128.19Y-68.58
X130.81Y-68.58
X135.81Y-68.58
X137.16Y-77.47
X137.16Y-80.01
X137.16Y-82.55
X137.16Y-85.09
X137.16Y-90.17
X137.16Y-92.71
X137.16Y-95.25
X137.16Y-97.79
X138.43Y-68.58
X140.97Y-77.47
X140.97Y-80.01
X140.97Y-82.55
X140.97Y-85.09
X140.97Y-90.17
X140.97Y-92.71
X140.97Y-95.25
X140.97Y-97.79
X143.43Y-68.58
X146.05Y-68.58
X148.59Y-77.47
X148.59Y-80.01
X148.59Y-82.55
X148.59Y-85.09
X148.59Y-90.17
X148.59Y-92.71
X148.59Y-95.25
X148.59Y-97.79
X151.05Y-68.58
X152.4Y-77.47
X152.4Y-80.01
X152.4Y-82.55
X152.4Y-85.09
X152.4Y-90.17
X152.4Y-92.71
X152.4Y-95.25
X152.4Y-97.79
X157.48Y-76.28
X157.48Y-78.28
X157.48Y-80.28
X157.48Y-82.28
X157.48Y-84.28
X157.48Y-86.28
X176.53Y-91.44
X176.53Y-93.98
X176.53Y-99.06
X176.53Y-101.6
X180.975Y-64.77
X180.975Y-74.93
X182.88Y-78.105
X182.88Y-88.265
X182.88Y-91.44
X182.88Y-101.6
X186.055Y-72.39
X186.055Y-74.93
T3
X167.005Y-97.79
X167.005Y-100.33
X190.5Y-72.39
X190.5Y-74.93
T4
X191.77Y-80.82
X191.77Y-83.82
X191.77Y-86.82
T5
X111.543Y-78.581
X111.543Y-88.419
X114.457Y-74.419
X114.457Y-92.581
T6
X156.72Y-100.33
X157.77Y-92.83
X162.27Y-92.83
X163.32Y-100.33
T7
X168.48Y-75.28
X168.48Y-87.28
T0
M30
